<?xml version="1.0" encoding="UTF-8" standalone="no"?>
<!-- Created with Inkscape (http://www.inkscape.org/) -->

<svg
   xmlns:ns0="http://ns.adobe.com/SaveForWeb/1.0/"
   xmlns:ns="http://ns.adobe.com/Variables/1.0/"
   xmlns:dc="http://purl.org/dc/elements/1.1/"
   xmlns:cc="http://creativecommons.org/ns#"
   xmlns:rdf="http://www.w3.org/1999/02/22-rdf-syntax-ns#"
   xmlns:svg="http://www.w3.org/2000/svg"
   xmlns="http://www.w3.org/2000/svg"
   xmlns:sodipodi="http://sodipodi.sourceforge.net/DTD/sodipodi-0.dtd"
   xmlns:inkscape="http://www.inkscape.org/namespaces/inkscape"
   version="1.1"
   width="607.08661"
   height="622.70123"
   viewBox="0 0 607.0866 622.70125"
   id="svg2"
   xml:space="preserve"
   style="overflow:visible"
   inkscape:version="0.48.2 r9819"
   sodipodi:docname="Antikythera_mechanism-frontview-freeth-1.svg"><sodipodi:namedview
   pagecolor="#ffffff"
   bordercolor="#42f01c"
   borderopacity="1"
   objecttolerance="10"
   gridtolerance="10"
   guidetolerance="10"
   inkscape:pageopacity="0"
   inkscape:pageshadow="2"
   inkscape:window-width="1600"
   inkscape:window-height="1176"
   id="namedview96"
   showgrid="false"
   fit-margin-left="1"
   fit-margin-top="1"
   fit-margin-right="1"
   fit-margin-bottom="1"
   inkscape:showpageshadow="false"
   inkscape:zoom="1.5561235"
   inkscape:cx="303.5433"
   inkscape:cy="311.35062"
   inkscape:window-x="0"
   inkscape:window-y="0"
   inkscape:window-maximized="1"
   inkscape:current-layer="svg2"
   units="mm"
   inkscape:snap-bbox="true"
   inkscape:bbox-paths="false"
   inkscape:bbox-nodes="true" /><defs
   id="defs175">
		
		
		
		
		
		
		
		
		
		
		
		
		
		
		
		
		
		
	
			
			
			
			
			
			
			
			
			
			
			
			
			
			
			
		
			
			
			
			
			
			
			
		
			
			
			
			
		
			
			
			
			
		
			
			
			
		
			
			
			
			
			
		
			
			
			
			
		
			
			
			
			
			
		
			
			
			
		
			
			
			
		
			
			
		
			
			
			
		
			
			
			
		</defs>
	<metadata
   id="metadata4">
		<ns:variableSets>
			<ns:variableSet
   locked="none"
   varSetName="binding1">
				<ns:variables />
				<ns:sampleDataSets />
			</ns:variableSet>
		</ns:variableSets>
		<ns0:sfw>
			<ns0:slices />
			<ns0:sliceSourceBounds
   bottomLeftOrigin="true"
   height="192.383"
   width="152.52"
   x="230.24"
   y="299.309" />
		</ns0:sfw>
	<rdf:RDF><cc:Work
     rdf:about=""><dc:format>image/svg+xml</dc:format><dc:type
       rdf:resource="http://purl.org/dc/dcmitype/StillImage" /><dc:title /></cc:Work></rdf:RDF></metadata>
	
<g
   transform="translate(-2.2010111,-90.775379)"
   id="layer1"
   style="display:none" /><g
   transform="matrix(4.5715788,0,0,4.5715788,90.088655,-2703.8535)"
   id="layer18"
   style="stroke-width:1;stroke-linecap:butt;stroke-miterlimit:4;stroke-dasharray:none;display:inline" /><g
   id="g4471"
   transform="matrix(1.9979987,0,0,1.9979987,-47.270003,-355.54657)"
   style="stroke-width:1;stroke-linecap:butt;stroke-miterlimit:4;stroke-dasharray:6.00000011, 1.00000002;stroke-dashoffset:0"><path
     transform="matrix(-2.3625859,2.5369084,-2.5886822,-2.4108022,321.46376,315.81482)"
     d="m 57.243116,32.899208 c 0,6.051213 -5.005589,10.95669 -11.180296,10.95669 -6.174707,0 -11.180296,-4.905477 -11.180296,-10.95669 0,-6.051213 5.005589,-10.95669 11.180296,-10.95669 6.174707,0 11.180296,4.905477 11.180296,10.95669 z"
     sodipodi:ry="10.95669"
     sodipodi:rx="11.180296"
     sodipodi:cy="32.899208"
     sodipodi:cx="46.06282"
     id="path4039-8-3-8-0"
     style="fill:none;stroke:#000080;stroke-width:0.28556308;stroke-linecap:butt;stroke-miterlimit:4;stroke-opacity:1;stroke-dasharray:1.71337846, 0.28556308;stroke-dashoffset:0;overflow:visible"
     sodipodi:type="arc" /><path
     d="m 172.12296,305.65801 c 3.61621,3.36778 3.82141,9.0321 0.45019,12.65207 -3.37123,3.62002 -9.03587,3.8179 -12.6521,0.45017 -3.61619,-3.36776 -3.82139,-9.03209 -0.45013,-12.65207 3.37122,-3.62 9.03582,-3.8179 12.65204,-0.45017 z"
     id="path53-4-1-28-0"
     style="fill:none;stroke:#000080;stroke-width:1;stroke-linecap:butt;stroke-miterlimit:4;stroke-dasharray:6.00000011, 1.00000002;stroke-dashoffset:0;display:inline;overflow:visible"
     inkscape:connector-curvature="0" /><path
     transform="matrix(-2.0635244,2.2157807,-2.2610009,-2.1056373,335.25119,278.83552)"
     d="m 57.243116,32.899208 c 0,6.051213 -5.005589,10.95669 -11.180296,10.95669 -6.174707,0 -11.180296,-4.905477 -11.180296,-10.95669 0,-6.051213 5.005589,-10.95669 11.180296,-10.95669 6.174707,0 11.180296,4.905477 11.180296,10.95669 z"
     sodipodi:ry="10.95669"
     sodipodi:rx="11.180296"
     sodipodi:cy="32.899208"
     sodipodi:cx="46.06282"
     id="path4039-8-3-8"
     style="fill:none;stroke:#000080;stroke-width:0.32694903;stroke-linecap:butt;stroke-miterlimit:4;stroke-opacity:1;stroke-dasharray:1.96169421, 0.32694903;stroke-dashoffset:0;overflow:visible"
     sodipodi:type="arc" /><path
     transform="matrix(-1.0802702,1.1599775,-1.1836505,-1.1023166,254.66598,294.85932)"
     d="m 57.243116,32.899208 c 0,6.051213 -5.005589,10.95669 -11.180296,10.95669 -6.174707,0 -11.180296,-4.905477 -11.180296,-10.95669 0,-6.051213 5.005589,-10.95669 11.180296,-10.95669 6.174707,0 11.180296,4.905477 11.180296,10.95669 z"
     sodipodi:ry="10.95669"
     sodipodi:rx="11.180296"
     sodipodi:cy="32.899208"
     sodipodi:cx="46.06282"
     id="path4039-3-0-4-0"
     style="fill:none;stroke:#000080;stroke-width:0.62453574;stroke-linecap:butt;stroke-miterlimit:4;stroke-opacity:1;stroke-dasharray:3.74721432, 0.62453572;stroke-dashoffset:0;overflow:visible"
     sodipodi:type="arc" /><path
     d="m 136.48392,342.88515 c 5.63648,5.24916 5.9563,14.07799 0.70169,19.72032 -5.25459,5.64229 -14.08386,5.95077 -19.72033,0.70161 -5.63645,-5.24915 -5.95619,-14.07796 -0.7016,-19.72026 5.25462,-5.64232 14.08379,-5.95081 19.72024,-0.70167 z"
     id="path53-4-1-28-0-5"
     style="fill:none;stroke:#000080;stroke-width:1;stroke-linecap:butt;stroke-miterlimit:4;stroke-dasharray:6.00000011, 1.00000002;stroke-dashoffset:0;display:inline;overflow:visible"
     inkscape:connector-curvature="0" /><path
     transform="matrix(-2.0145579,2.1632012,-2.2073482,-2.0556713,285.56441,328.28534)"
     d="m 57.243116,32.899208 c 0,6.051213 -5.005589,10.95669 -11.180296,10.95669 -6.174707,0 -11.180296,-4.905477 -11.180296,-10.95669 0,-6.051213 5.005589,-10.95669 11.180296,-10.95669 6.174707,0 11.180296,4.905477 11.180296,10.95669 z"
     sodipodi:ry="10.95669"
     sodipodi:rx="11.180296"
     sodipodi:cy="32.899208"
     sodipodi:cx="46.06282"
     id="path4039-3-0-4-0-9"
     style="fill:none;stroke:#000080;stroke-width:0.33489597;stroke-linecap:butt;stroke-miterlimit:4;stroke-opacity:1;stroke-dasharray:2.00937588, 0.33489598;stroke-dashoffset:0;overflow:visible"
     sodipodi:type="arc" /><path
     d="m 121.37239,358.29437 c 1.18409,1.10277 1.25131,2.9575 0.14742,4.14285 -1.10389,1.18536 -2.95876,1.25015 -4.14286,0.1474 -1.18409,-1.10277 -1.2513,-2.95751 -0.1474,-4.14285 1.10389,-1.18536 2.95873,-1.25016 4.14284,-0.1474 z"
     id="path53-4-1-28-0-3"
     style="fill:#000080;stroke:#000080;stroke-width:1;stroke-linecap:butt;stroke-miterlimit:4;stroke-dasharray:6.00000011, 1.00000002;stroke-dashoffset:0;display:inline;overflow:visible"
     inkscape:connector-curvature="0" /><rect
     inkscape:transform-center-y="-8.2052734"
     transform="matrix(-0.92827357,0.37189807,-0.37189807,-0.92827357,0,0)"
     inkscape:transform-center-x="17.433167"
     y="-381.65994"
     x="-8.4191933"
     height="4.7471175"
     width="25.410955"
     id="rect3846"
     style="fill:none;stroke:#000080;stroke-width:1;stroke-linecap:butt;stroke-miterlimit:4;stroke-opacity:1;stroke-dasharray:6.00000013, 1.00000002;stroke-dashoffset:0" /><path
     d="m 146.55854,349.31255 c 0.51766,0.48205 0.54701,1.29288 0.0644,1.81105 -0.48256,0.51818 -1.29341,0.54651 -1.81106,0.0644 -0.51766,-0.48205 -0.547,-1.29288 -0.0644,-1.81106 0.48256,-0.51817 1.29341,-0.54651 1.81105,-0.0644 z"
     id="path53-4-1-28-0-8"
     style="fill:#000080;stroke:#000080;stroke-width:1;stroke-linecap:butt;stroke-miterlimit:4;stroke-dasharray:6.00000011, 1.00000002;stroke-dashoffset:0;display:inline;overflow:visible"
     inkscape:connector-curvature="0" /></g><text
   xml:space="preserve"
   style="font-size:19.9799881px;font-style:normal;font-weight:normal;text-align:start;line-height:125%;letter-spacing:0px;word-spacing:0px;text-anchor:start;fill:#000000;fill-opacity:1;stroke:none;font-family:Sans"
   x="310.97293"
   y="568.92505"
   id="text3877"
   sodipodi:linespacing="125%"><tspan
     sodipodi:role="line"
     id="tspan3879"
     x="310.97293"
     y="568.92505">MARS</tspan><tspan
     sodipodi:role="line"
     x="310.97293"
     y="593.90002"
     id="tspan4870">JUPITER</tspan><tspan
     sodipodi:role="line"
     x="310.97293"
     y="618.87506"
     id="tspan4872">SATURN</tspan></text>



<g
   id="g4451"
   transform="matrix(-1.4347046,-1.3905472,1.3905472,-1.4347046,137.24885,894.39608)"
   inkscape:transform-center-x="-41.342245"
   inkscape:transform-center-y="40.423909"
   style="stroke-width:1;stroke-linecap:butt;stroke-miterlimit:4;stroke-dasharray:6.00000011, 1.00000002;stroke-dashoffset:0"><path
     d="m 135.84668,276.71559 a 30.303769,29.66155 89.685443 1 0 59.3222,-0.32568 30.303769,29.66155 89.685443 0 0 -59.3222,0.32568 z"
     id="path3653"
     style="fill:none;stroke:#ff0000;stroke-width:1;stroke-linecap:butt;stroke-miterlimit:4;stroke-dasharray:6.00000011, 1.00000002;stroke-dashoffset:0"
     inkscape:connector-curvature="0" /><path
     d="m 137.52645,276.7484 a 28.77364,28.163848 89.685443 1 0 56.32684,-0.30924 28.77364,28.163848 89.685443 0 0 -56.32684,0.30924 z"
     id="path3655"
     style="fill:none;stroke:#ff0000;stroke-width:1;stroke-linecap:butt;stroke-miterlimit:4;stroke-dasharray:6.00000011, 1.00000002;stroke-dashoffset:0"
     inkscape:connector-curvature="0" /><path
     d="M 136.78127,269.89675 A 29.76782,29.136959 77.033425 1 0 79.993276,282.9724 29.76782,29.136959 77.033425 0 0 136.78127,269.89675 z"
     id="path3671"
     style="fill:none;stroke:#ff0000;stroke-width:1;stroke-linecap:butt;stroke-miterlimit:4;stroke-dasharray:6.00000011, 1.00000002;stroke-dashoffset:0"
     inkscape:connector-curvature="0" /><path
     d="M 135.15425,269.81282 A 30.272359,29.630805 77.033425 1 0 77.403753,283.11009 30.272359,29.630805 77.033425 0 0 135.15425,269.81282 z"
     id="path3673"
     style="fill:none;stroke:#ff0000;stroke-width:1;stroke-linecap:butt;stroke-miterlimit:4;stroke-dasharray:6.00000011, 1.00000002;stroke-dashoffset:0"
     inkscape:connector-curvature="0" /><path
     d="m 117.21315,297.61681 a 2.0304654,1.9874342 77.033425 1 0 -3.87351,0.89188 2.0304654,1.9874342 77.033425 0 0 3.87351,-0.89188 z"
     id="path3727"
     style="fill:#ff0000;fill-opacity:1;stroke:#ff0000;stroke-width:1;stroke-linecap:butt;stroke-miterlimit:4;stroke-dasharray:6.00000011, 1.00000002;stroke-dashoffset:0"
     inkscape:connector-curvature="0" /><path
     d="m 113.37462,274.86291 a 5.7107244,5.5896988 77.033425 1 0 -10.89434,2.50844 5.7107244,5.5896988 77.033425 0 0 10.89434,-2.50844 z"
     id="path3729"
     style="fill:none;stroke:#ff0000;stroke-width:1;stroke-linecap:butt;stroke-miterlimit:4;stroke-dasharray:6.00000011, 1.00000002;stroke-dashoffset:0"
     inkscape:connector-curvature="0" /><path
     d="m 108.62875,275.46963 a 3.1011686,3.0354462 77.033425 1 0 -5.91609,1.3622 3.1011686,3.0354462 77.033425 0 0 5.91609,-1.3622 z"
     id="path3733"
     style="fill:#ff0000;fill-opacity:1;stroke:#ff0000;stroke-width:1;stroke-linecap:butt;stroke-miterlimit:4;stroke-dasharray:6.00000011, 1.00000002;stroke-dashoffset:0"
     inkscape:connector-curvature="0" /><rect
     width="6.3069415"
     height="13.413614"
     x="-15.387969"
     y="310.16919"
     transform="matrix(0.9150782,-0.40327645,0.3961804,0.91817269,0,0)"
     id="rect4558"
     style="fill:none;stroke:#ff0000;stroke-width:1.00001502;stroke-linecap:butt;stroke-miterlimit:4;stroke-opacity:1;stroke-dasharray:6.00009, 1.000015;stroke-dashoffset:0" /><path
     d="m 177.29012,276.27645 c 0.0358,6.5184 -5.21864,11.83769 -11.74382,11.8735 -6.52517,0.0358 -11.83772,-5.22544 -11.8735,-11.74384 -0.0358,-6.51842 5.21867,-11.83767 11.74384,-11.87348 6.52518,-0.0358 11.83769,5.2254 11.87348,11.74382 z"
     id="path53-4-1-28-0-9-1"
     style="fill:none;stroke:#ff0000;stroke-width:1;stroke-linecap:butt;stroke-miterlimit:4;stroke-dasharray:6.00000011, 1.00000002;stroke-dashoffset:0;display:inline;overflow:visible"
     inkscape:connector-curvature="0" /></g>

<g
   id="g4431"
   transform="matrix(1.3954209,-1.4299648,1.4299648,1.3954209,-489.90809,47.549911)"
   inkscape:transform-center-x="-59.176177"
   inkscape:transform-center-y="-60.120211"
   style="stroke:#00d4aa;stroke-width:1;stroke-linecap:butt;stroke-miterlimit:4;stroke-dasharray:6.00000009, 1.00000002;stroke-dashoffset:0"><path
     d="m 234.11146,354.33209 a 42.51489,43.435404 0 1 0 -85.02978,0 42.514895,43.435409 0 0 0 85.02979,0 z"
     id="path3653-4"
     style="fill:none;stroke:#00d4aa;stroke-width:1;stroke-linecap:butt;stroke-miterlimit:4;stroke-dasharray:6.00000009, 1.00000002;stroke-dashoffset:0"
     inkscape:connector-curvature="0" /><path
     d="m 229.09664,354.23937 a 37.551797,38.364853 0 1 0 -75.10359,0 37.551797,38.364853 0 0 0 75.10359,0 z"
     id="path3655-8"
     style="fill:none;stroke:#00d4aa;stroke-width:1;stroke-linecap:butt;stroke-miterlimit:4;stroke-dasharray:6.00000009, 1.00000002;stroke-dashoffset:0"
     inkscape:connector-curvature="0" /><path
     d="m 230.33874,363.66477 a 41.876763,40.989281 77.347982 1 0 79.98797,-17.9557 41.876763,40.989281 77.347982 0 0 -79.98797,17.9557 z"
     id="path3671-4"
     style="fill:none;stroke:#00d4aa;stroke-width:1;stroke-linecap:butt;stroke-miterlimit:4;stroke-dasharray:6.00000009, 1.00000002;stroke-dashoffset:0"
     inkscape:connector-curvature="0" /><path
     d="m 235.07311,364.07115 a 43.390382,42.470821 77.347982 1 0 82.8791,-18.60469 43.390382,42.470821 77.347982 0 0 -82.8791,18.60469 z"
     id="path3673-5"
     style="fill:none;stroke:#00d4aa;stroke-width:1;stroke-linecap:butt;stroke-miterlimit:4;stroke-dasharray:6.00000009, 1.00000002;stroke-dashoffset:0"
     inkscape:connector-curvature="0" /><path
     d="m 262.74902,324.75172 a 2.0304654,1.9874342 77.347982 1 0 3.87835,-0.87061 2.0304654,1.9874342 77.347982 0 0 -3.87835,0.87061 z"
     id="path3727-2"
     style="fill:#808000;fill-opacity:1;stroke:#00d4aa;stroke-width:1;stroke-linecap:butt;stroke-miterlimit:4;stroke-dasharray:6.00000009, 1.00000002;stroke-dashoffset:0"
     inkscape:connector-curvature="0" /><path
     d="m 262.07884,356.8326 a 9.5178741,9.3161647 77.347982 1 0 18.17991,-4.081 9.5178741,9.3161647 77.347982 0 0 -18.17991,4.081 z"
     id="path3729-4"
     style="fill:none;stroke:#00d4aa;stroke-width:1;stroke-linecap:butt;stroke-miterlimit:4;stroke-dasharray:6.00000009, 1.00000002;stroke-dashoffset:0"
     inkscape:connector-curvature="0" /><path
     d="m 273.44564,355.60216 a 3.1011686,3.0354462 77.347982 1 0 5.92347,-1.3297 3.1011686,3.0354462 77.347982 0 0 -5.92348,1.3297 z"
     id="path3733-4"
     style="fill:#808000;fill-opacity:1;stroke:#00d4aa;stroke-width:1;stroke-linecap:butt;stroke-miterlimit:4;stroke-dasharray:6.00000009, 1.00000002;stroke-dashoffset:0"
     inkscape:connector-curvature="0" /><rect
     width="6.4033718"
     height="21.040625"
     x="-119.95002"
     y="-416.86789"
     transform="matrix(-0.9172784,0.39824657,-0.39113363,-0.9203339,0,0)"
     id="rect4558-5"
     style="fill:none;stroke:#00d4aa;stroke-width:1.00001502;stroke-linecap:butt;stroke-miterlimit:4;stroke-opacity:1;stroke-dasharray:6.00008999, 1.000015;stroke-dashoffset:0" /><path
     d="m 181.09248,354.44748 c 0,-5.84399 4.73683,-10.58693 10.58689,-10.58693 5.85005,0 10.58693,4.74294 10.58693,10.58693 0,5.84399 -4.73688,10.58689 -10.58693,10.58689 -5.85006,0 -10.58689,-4.7429 -10.58689,-10.58689 z"
     id="path53-4-1-28-0-9-1-7"
     style="fill:none;stroke:#00d4aa;stroke-width:1;stroke-linecap:butt;stroke-miterlimit:4;stroke-dasharray:6.00000009, 1.00000002;stroke-dashoffset:0;display:inline;overflow:visible"
     inkscape:connector-curvature="0" /></g>



<g
   transform="matrix(0.9851804,0,0,0.9851804,887.78422,-54.552529)"
   style="stroke-width:2.02805376;stroke-linecap:butt;stroke-miterlimit:4;stroke-dasharray:none;overflow:visible"
   id="g3446"><path
     sodipodi:nodetypes="cccc"
     d="m -340.79377,269.75977 30.93674,0 0,101 -30.93761,0"
     id="path23-7"
     style="fill:none;stroke:#808080;stroke-width:2.02805376;stroke-linecap:butt;stroke-miterlimit:4;stroke-dasharray:none;overflow:visible"
     inkscape:connector-curvature="0" /><path
     d="m -289.53063,329.75977 -21.14008,0"
     id="path25-6"
     style="fill:none;stroke:#808080;stroke-width:2.02805376;stroke-linecap:butt;stroke-miterlimit:4;stroke-dasharray:none;overflow:visible"
     inkscape:connector-curvature="0"
     sodipodi:nodetypes="cc" /><path
     d="m -289.59158,309.62098 -20.35381,0"
     id="path27-5"
     style="fill:none;stroke:#808080;stroke-width:2.02805376;stroke-linecap:butt;stroke-miterlimit:4;stroke-dasharray:none;overflow:visible"
     inkscape:connector-curvature="0"
     sodipodi:nodetypes="cc" /><path
     d="m -825.52467,506.52606 -34.00001,25 -15,-17 34,-26"
     id="path19-3"
     style="fill:none;stroke:#808080;stroke-width:2.02805376;stroke-linecap:butt;stroke-miterlimit:4;stroke-dasharray:none;overflow:visible"
     inkscape:connector-curvature="0" /><path
     d="m -845.52811,185.54868 -37,-27 -14,20 39,28"
     id="path21-5"
     style="fill:none;stroke:#808080;stroke-width:2.02805376;stroke-linecap:butt;stroke-miterlimit:4;stroke-dasharray:none;overflow:visible"
     inkscape:connector-curvature="0" /><path
     d="m -289.91401,309.62097 0.057,20.13879"
     id="path4483-7"
     style="fill:none;stroke:#808080;stroke-width:2.02805376;stroke-linecap:butt;stroke-linejoin:miter;stroke-miterlimit:4;stroke-opacity:1;stroke-dasharray:none"
     inkscape:connector-curvature="0" /><path
     d="m -619.6548,326.63917 c 0.62246,-3.81354 4.21874,-6.40404 8.03622,-5.78094 3.81748,0.62311 6.40339,4.22269 5.78094,8.03622 -0.62246,3.81353 -4.21874,6.40404 -8.03622,5.78093 -3.81748,-0.6231 -6.40339,-4.22268 -5.78094,-8.03621 z"
     id="path53-6"
     style="stroke:#000000;stroke-width:2.02805376;stroke-linecap:butt;stroke-miterlimit:4;stroke-dasharray:none;display:inline;overflow:visible"
     inkscape:connector-curvature="0" /><path
     d="m -887.98103,333.31577 c 0,-150.96 122.384,-273.331999 273.336,-273.331999 150.956,0 273.332,122.371999 273.332,273.331999 0,150.96 -122.376,273.332 -273.332,273.332 -150.956,0 -273.336,-122.376 -273.336,-273.332 z"
     id="path9-7"
     style="fill:none;stroke:#808080;stroke-width:2.02805376;stroke-linecap:butt;stroke-miterlimit:4;stroke-dasharray:none;display:inline;overflow:visible"
     inkscape:connector-curvature="0" /><path
     d="m -478.44613,511.15258 -2.03628,0.48227 c -46.50488,34.89621 -106.60567,51.53173 -168.51836,41.42612 -35.214,-5.74776 -67.12214,-19.50761 -94.16852,-39.11666 l -0.56435,0.3537 130.53122,-133.90132 1.08057,0.43171 133.67572,130.32418"
     id="path11"
     style="fill:none;stroke:#808080;stroke-width:2.02805376;stroke-linecap:butt;stroke-miterlimit:4;stroke-dasharray:none;display:inline;overflow:visible"
     inkscape:connector-curvature="0" /><path
     d="m -793.23217,204.41293 130.65357,127.23701 -0.46243,0.54867 -130.33198,133.69877 1.15495,-0.91794 c -33.62913,-46.1481 -49.49835,-105.20785 -39.57252,-166.01911 5.86632,-35.94039 20.07861,-68.43531 40.34475,-95.83242"
     id="path13"
     style="fill:none;stroke:#808080;stroke-width:2.02805376;stroke-linecap:butt;stroke-miterlimit:4;stroke-dasharray:none;display:inline;overflow:visible"
     inkscape:connector-curvature="0" /><path
     d="m -564.02194,329.95244 125.99104,-129.02907 1.27199,0.2522 c 35.19503,46.58607 52.00563,106.93025 41.85814,169.09954 -5.48034,33.57568 -18.24776,64.14622 -36.42471,90.36449 M -564.21076,330.71194 -430.0442,461.50531"
     id="path15"
     style="fill:none;stroke:#808080;stroke-width:2.02805376;stroke-linecap:butt;stroke-miterlimit:4;stroke-dasharray:none;display:inline;overflow:visible"
     inkscape:connector-curvature="0" /><path
     d="m -614.00845,282.16387 -130.725,-126.57588 m 129.46,127.62176 127.8653,-131.54804 -1.18149,0.0625 c -25.92934,-17.71234 -56.05692,-30.16428 -89.1036,-35.55827 -60.90601,-9.9413 -120.05632,5.98609 -166.23559,39.73173"
     id="path17"
     style="fill:none;stroke:#808080;stroke-width:2.02805376;stroke-linecap:butt;stroke-miterlimit:4;stroke-dasharray:none;display:inline;overflow:visible"
     inkscape:connector-curvature="0" /><path
     sodipodi:nodetypes="cc"
     d="m -340.08596,270.14268 0,101"
     id="path23-8"
     style="fill:none;stroke:#808080;stroke-width:2.02805376;stroke-linecap:butt;stroke-miterlimit:4;stroke-dasharray:none;overflow:visible"
     inkscape:connector-curvature="0" /></g><g
   id="g4612"
   transform="matrix(1.9979987,0,0,1.9979987,-3.5362102,-3.5362189)"><path
     d="m 127.84482,148.45814 a 20.066584,19.641319 32.695858 1 0 -21.21967,33.0583 20.066584,19.641319 32.695858 1 0 21.21967,-33.0583 z"
     id="path3671-3-1"
     style="fill:none;stroke:#00ff66;stroke-width:1;stroke-linecap:butt;stroke-miterlimit:4;stroke-dasharray:none;overflow:visible"
     inkscape:connector-curvature="0" /><path
     d="m 100.33717,176.83904 a 20.066584,19.641319 32.695858 1 0 -21.219667,33.0583 20.066584,19.641319 32.695858 1 0 21.219667,-33.0583 z"
     id="path3671-3-1-6"
     style="fill:none;stroke:#00ff66;stroke-width:1;stroke-linecap:butt;stroke-miterlimit:4;stroke-dasharray:none;overflow:visible"
     inkscape:connector-curvature="0" /><path
     inkscape:transform-center-y="-0.33639852"
     inkscape:transform-center-x="-18.980301"
     d="m 78.839782,200.33652 a 1.5715472,1.6055737 55.303661 1 0 1.78911,2.58419 1.5715472,1.6055737 55.303661 0 0 -1.78911,-2.58419 z"
     id="path3727-1-7-2"
     style="fill:#00ff66;fill-opacity:1;stroke:#00ff66;stroke-width:0.79074174;stroke-linecap:butt;stroke-miterlimit:4;stroke-dasharray:none;overflow:visible"
     inkscape:connector-curvature="0" /><rect
     ry="2.5663452"
     inkscape:transform-center-y="-0.40323188"
     inkscape:transform-center-x="-21.634874"
     width="5.1326904"
     height="91.854454"
     x="-201.46198"
     y="-92.279823"
     transform="matrix(-0.71340861,-0.70074829,0.70625006,-0.70796247,0,0)"
     id="rect4558-4-4-5"
     style="fill:none;stroke:#00ff66;stroke-width:1.00001502;stroke-linecap:butt;stroke-miterlimit:4;stroke-opacity:1;stroke-dasharray:none;overflow:visible" /></g><g
   transform="matrix(1.9979987,0,0,1.9979987,62.271149,379.01845)"
   style="overflow:visible"
   id="g4678"><path
     d="m 121.69477,-72.20623 a 20.066584,19.641319 32.695858 1 0 -21.21967,33.0583 20.066584,19.641319 32.695858 0 0 21.21967,-33.0583 z"
     id="path3671-3"
     style="fill:none;stroke:#0000ff;stroke-width:1;stroke-linecap:butt;stroke-miterlimit:4;stroke-dasharray:none"
     inkscape:connector-curvature="0" /><path
     d="m 164.42823,-118.39003 a 32.115554,31.434938 32.695858 1 0 -33.96102,52.90813 32.115554,31.434938 32.695858 0 0 33.96102,-52.90813 z"
     id="path3673-57"
     style="fill:none;stroke:#0000ff;stroke-width:1;stroke-linecap:butt;stroke-miterlimit:4;stroke-dasharray:none"
     inkscape:connector-curvature="0" /><path
     inkscape:transform-center-y="-0.33639852"
     inkscape:transform-center-x="-18.980301"
     d="m 170.99407,-117.4356 a 1.5715472,1.6055737 55.303661 1 0 1.78911,2.58419 1.5715472,1.6055737 55.303661 0 0 -1.78911,-2.58419 z"
     id="path3727-1"
     style="fill:#0000ff;fill-opacity:1;stroke:#0000ff;stroke-width:0.79074174;stroke-linecap:butt;stroke-miterlimit:4;stroke-dasharray:none"
     inkscape:connector-curvature="0" /><path
     d="m 114.76594,-61.36332 a 6.875041,6.7293405 32.695858 1 0 -7.27012,11.32614 6.875041,6.7293405 32.695858 0 0 7.27012,-11.32614 z"
     id="path3729-3"
     style="fill:none;stroke:#0000ff;stroke-width:1.33430755;stroke-linecap:butt;stroke-miterlimit:4;stroke-dasharray:none"
     inkscape:connector-curvature="0" /><rect
     ry="2.5663452"
     inkscape:transform-center-y="-0.40323188"
     inkscape:transform-center-x="-21.634874"
     width="5.1326904"
     height="91.854454"
     x="-42.098057"
     y="122.62589"
     transform="matrix(-0.71340861,-0.70074829,0.70625006,-0.70796247,0,0)"
     id="rect4558-4"
     style="fill:none;stroke:#0000ff;stroke-width:1.00001502;stroke-linecap:butt;stroke-miterlimit:4;stroke-opacity:1;stroke-dasharray:none" /><rect
     ry="2.8389785"
     inkscape:transform-center-y="-11.680223"
     inkscape:transform-center-x="40.703469"
     width="5.6779571"
     height="65.391655"
     x="17.326874"
     y="144.77367"
     transform="matrix(-0.48302015,-0.87560924,0.87932224,-0.47622725,0,0)"
     id="rect4558-4-2"
     style="fill:none;stroke:#0000ff;stroke-width:1.00001502;stroke-linecap:butt;stroke-miterlimit:4;stroke-opacity:1;stroke-dasharray:none;overflow:visible" /><path
     d="m 149.81807,-95.539804 a 4.5833632,4.486228 32.695858 1 0 -4.84676,7.550754 4.5833632,4.486228 32.695858 0 0 4.84676,-7.550754 z"
     id="path3729-3-1"
     style="fill:#0000ff;stroke:#0000ff;stroke-width:0.88953739;stroke-linecap:butt;stroke-miterlimit:4;stroke-dasharray:none;overflow:visible"
     inkscape:connector-curvature="0" /></g><g
   transform="matrix(1.9979987,0,0,1.9979987,43.822428,519.42003)"
   style="overflow:visible"
   id="g4793"><path
     d="M 163.3431,-98.67031 A 50.654722,51.751476 32.937666 0 0 78.317879,-153.75492 50.654722,51.751476 32.937666 1 0 163.3431,-98.67031 z"
     id="path3671-3-3"
     style="fill:none;stroke:#ff6600;stroke-width:1;stroke-linecap:butt;stroke-miterlimit:4;stroke-dasharray:none"
     inkscape:connector-curvature="0" /><path
     d="m 196.25997,-57.41322 a 26.056847,26.621019 32.937666 1 0 -43.73707,-28.33559 26.056847,26.621019 32.937666 0 0 43.73707,28.33559 z"
     id="path3673-57-5"
     style="fill:none;stroke:#ff6600;stroke-width:1;stroke-linecap:butt;stroke-miterlimit:4;stroke-dasharray:none"
     inkscape:connector-curvature="0" /><path
     inkscape:transform-center-y="-0.33639852"
     inkscape:transform-center-x="-18.980301"
     d="m 195.25899,-52.19825 a 1.6055737,1.5715472 55.545468 1 0 -2.59173,1.77819 1.6055737,1.5715472 55.545468 0 0 2.59173,-1.77819 z"
     id="path3727-1-0"
     style="fill:#ff6600;fill-opacity:1;stroke:#ff6600;stroke-width:1;stroke-linecap:butt;stroke-miterlimit:4;stroke-dasharray:none"
     inkscape:connector-curvature="0" /><path
     d="m 124.01942,-123.31005 a 4.5224699,4.6203883 32.937666 1 0 -7.59106,-4.91799 4.5224699,4.6203883 32.937666 0 0 7.59106,4.91799 z"
     id="path3729-3-4"
     style="fill:none;stroke:#ff6600;stroke-width:0.89672482;stroke-linecap:butt;stroke-miterlimit:4;stroke-dasharray:none"
     inkscape:connector-curvature="0" /><rect
     ry="2.5663452"
     inkscape:transform-center-y="-0.40323188"
     inkscape:transform-center-x="-21.634874"
     width="5.3868241"
     height="103.29482"
     x="171.04849"
     y="1.8325939"
     transform="matrix(0.70375286,-0.71044487,0.70497556,0.7092316,0,0)"
     id="rect4558-4-0"
     style="fill:none;stroke:#ff6600;stroke-width:1.00001502;stroke-linecap:butt;stroke-miterlimit:4;stroke-opacity:1;stroke-dasharray:none" /><rect
     ry="2.8389785"
     inkscape:transform-center-y="-10.223476"
     inkscape:transform-center-x="41.093564"
     width="5.8641686"
     height="55.028744"
     x="190.58278"
     y="2.6319084"
     transform="matrix(0.86001612,-0.51026687,0.50359385,0.86394053,0,0)"
     id="rect4558-4-2-0"
     style="fill:none;stroke:#ff6600;stroke-width:1.00001502;stroke-linecap:butt;stroke-miterlimit:4;stroke-opacity:1;stroke-dasharray:none;overflow:visible" /><path
     d="m 178.23262,-69.550778 a 4.52247,4.6203884 32.937666 1 0 -7.59106,-4.91799 4.52247,4.6203884 32.937666 0 0 7.59106,4.91799 z"
     id="path3729-3-4-6"
     style="fill:#ff6600;fill-opacity:1;stroke:#ff6600;stroke-width:0.89672482;stroke-linecap:butt;stroke-miterlimit:4;stroke-dasharray:none;overflow:visible"
     inkscape:connector-curvature="0" /></g><text
   xml:space="preserve"
   style="font-size:19.9799881px;font-style:normal;font-weight:normal;text-align:start;line-height:125%;letter-spacing:0px;word-spacing:0px;text-anchor:start;fill:#000000;fill-opacity:1;stroke:none;overflow:visible;font-family:Sans"
   x="7.7753057"
   y="568.92505"
   id="text3877-3"
   sodipodi:linespacing="125%"><tspan
     sodipodi:role="line"
     id="tspan3879-4"
     x="7.7753057"
     y="568.92505">SUN</tspan><tspan
     sodipodi:role="line"
     x="7.7753057"
     y="593.90002"
     id="tspan4864">MERCURY</tspan><tspan
     sodipodi:role="line"
     x="7.7753057"
     y="618.87506"
     id="tspan4866">VENUS</tspan><tspan
     sodipodi:role="line"
     x="7.7753057"
     y="643.85004"
     id="tspan4868" /></text>

<path
   style="fill:none;stroke:#00ff66;stroke-width:1.99799871px;stroke-linecap:butt;stroke-linejoin:miter;stroke-opacity:1"
   d="m 116.13643,562.13975 161.00286,0"
   id="path4874"
   inkscape:connector-curvature="0"
   sodipodi:nodetypes="cc" /><path
   style="fill:none;stroke:#ff6600;stroke-width:1.99799871px;stroke-linecap:butt;stroke-linejoin:miter;stroke-opacity:1;overflow:visible"
   d="m 116.13643,586.34506 161.00288,0"
   id="path4874-1"
   inkscape:connector-curvature="0"
   sodipodi:nodetypes="cc" /><path
   style="fill:none;stroke:#0000ff;stroke-width:1.99799871px;stroke-linecap:butt;stroke-linejoin:miter;stroke-opacity:1;overflow:visible"
   d="m 116.13643,611.63671 161.00288,0"
   id="path4874-4"
   inkscape:connector-curvature="0"
   sodipodi:nodetypes="cc" /><path
   style="fill:none;stroke:#000080;stroke-width:1.99799871;stroke-linecap:butt;stroke-linejoin:miter;stroke-miterlimit:4;stroke-opacity:1;stroke-dasharray:11.98799271, 1.99799879;stroke-dashoffset:0;overflow:visible"
   d="m 409.482,562.21343 164.70408,0"
   id="path4874-3"
   inkscape:connector-curvature="0"
   sodipodi:nodetypes="cc" /><path
   style="fill:none;stroke:#00d4aa;stroke-width:1.99799871;stroke-linecap:butt;stroke-linejoin:miter;stroke-miterlimit:4;stroke-opacity:1;stroke-dasharray:11.98799271, 1.99799879;stroke-dashoffset:0;overflow:visible"
   d="m 409.482,586.41875 164.7041,0"
   id="path4874-1-9"
   inkscape:connector-curvature="0"
   sodipodi:nodetypes="cc" /><path
   style="fill:none;stroke:#ff0000;stroke-width:1.99799871;stroke-linecap:butt;stroke-linejoin:miter;stroke-miterlimit:4;stroke-opacity:1;stroke-dasharray:11.98799271, 1.99799879;stroke-dashoffset:0;overflow:visible"
   d="m 409.482,611.7104 164.7041,0"
   id="path4874-4-8"
   inkscape:connector-curvature="0"
   sodipodi:nodetypes="cc" /></svg>