<?xml version="1.0" encoding="UTF-8" standalone="no"?>
<svg
   xmlns:dc="http://purl.org/dc/elements/1.1/"
   xmlns:cc="http://web.resource.org/cc/"
   xmlns:rdf="http://www.w3.org/1999/02/22-rdf-syntax-ns#"
   xmlns:svg="http://www.w3.org/2000/svg"
   xmlns="http://www.w3.org/2000/svg"
   xmlns:sodipodi="http://sodipodi.sourceforge.net/DTD/sodipodi-0.dtd"
   xmlns:inkscape="http://www.inkscape.org/namespaces/inkscape"
   width="3000"
   height="2000"
   viewBox="0 -410 3080 1900"
   id="svg2"
   sodipodi:version="0.32"
   inkscape:version="0.45.1"
   sodipodi:docname="Mu_uc_lc.svg"
   inkscape:output_extension="org.inkscape.output.svg.inkscape"
   sodipodi:docbase="C:\Documents and Settings\Flanker\Desktop"
   version="1.0">
  <metadata
     id="metadata15">
    <rdf:RDF>
      <cc:Work
         rdf:about="">
        <dc:format>image/svg+xml</dc:format>
        <dc:type
           rdf:resource="http://purl.org/dc/dcmitype/StillImage" />
      </cc:Work>
    </rdf:RDF>
  </metadata>
  <defs
     id="defs13" />
  <sodipodi:namedview
     inkscape:window-height="1005"
     inkscape:window-width="1280"
     inkscape:pageshadow="2"
     inkscape:pageopacity="0.0"
     guidetolerance="10.0"
     gridtolerance="10.0"
     objecttolerance="10.0"
     borderopacity="1.0"
     bordercolor="#666666"
     pagecolor="#ffffff"
     id="base"
     inkscape:zoom="0.19947368"
     inkscape:cx="1540"
     inkscape:cy="1351.0554"
     inkscape:window-x="-4"
     inkscape:window-y="-4"
     inkscape:current-layer="svg2"
     width="3000px"
     height="2000px"
     inkscape:showpageshadow="false" />
  <text
     xml:space="preserve"
     style="font-size:12px;font-style:normal;font-weight:normal;fill:#000000;fill-opacity:1;stroke:none;stroke-width:1px;stroke-linecap:butt;stroke-linejoin:miter;stroke-opacity:1;font-family:Lello"
     x="-471.24011"
     y="-946.41162"
     id="text2171"><tspan
       sodipodi:role="line"
       id="tspan2173"
       x="-471.24011"
       y="-946.41162"></tspan></text>
  <path
     style="font-size:2050.27807617px;font-style:normal;font-weight:normal;fill:#000000;fill-opacity:1;stroke:none;stroke-width:1px;stroke-linecap:butt;stroke-linejoin:miter;stroke-opacity:1;font-family:Times New Roman"
     d="M 309.13234,997.50836 L 309.13234,960.46721 C 360.5227,952.45835 399.89974,935.77316 427.2636,910.41159 C 454.62716,885.05019 483.32569,836.32944 513.35926,764.24919 L 986.8854,-391.03446 L 1023.9266,-391.03446 L 1528.4872,770.25586 C 1562.5237,849.01018 1591.8896,899.90001 1616.5851,922.92549 C 1641.2778,945.95113 1684.6593,958.46502 1746.7297,960.46721 L 1746.7297,997.50836 L 1193.1145,997.50836 L 1193.1145,960.46721 C 1256.5173,955.12798 1297.3961,944.44946 1315.7508,928.43161 C 1334.1035,912.4139 1343.2803,891.72426 1343.2814,866.36265 C 1343.2803,834.99462 1327.93,783.93794 1297.2302,713.19246 L 951.84647,-82.691855 L 631.49052,703.18133 C 601.45683,775.92905 586.44016,829.32166 586.44046,863.35931 C 586.44016,891.39056 595.78386,913.58186 614.47161,929.93328 C 633.15868,946.28483 670.86721,956.4628 727.5973,960.46721 L 727.5973,997.50836 L 309.13234,997.50836 z M 2734.8276,709.18801 L 2770.8676,709.18801 C 2770.8666,814.63869 2753.6809,891.39056 2719.3103,939.44385 C 2684.9379,987.49725 2642.057,1011.5239 2590.6674,1011.5239 C 2548.6199,1011.5239 2508.2418,995.67299 2469.5328,963.9711 C 2430.8225,932.26927 2396.1173,847.34166 2365.4171,709.18801 L 2279.3215,320.75642 L 1980.99,997.50836 L 1791.7798,997.50836 L 2220.2558,74.482783 C 2197.5635,-44.982248 2170.1998,-133.41375 2138.1646,-190.81199 C 2106.1287,-248.20785 2066.4179,-276.90637 2019.0323,-276.90765 C 1980.9898,-276.90637 1947.7863,-262.39026 1919.4216,-233.35926 C 1891.0566,-204.3258 1875.2057,-159.44264 1871.8687,-98.709653 L 1835.8287,-98.709653 C 1837.8309,-196.81747 1857.5194,-275.40471 1894.8943,-334.47161 C 1932.269,-393.53585 1978.9876,-423.06863 2035.0501,-423.07005 C 2071.0898,-423.06863 2105.2944,-408.21881 2137.6641,-378.52055 C 2170.033,-348.81954 2198.0641,-298.09657 2221.7575,-226.35148 C 2245.45,-154.60394 2282.3243,-5.9389054 2332.3804,219.64407 L 2403.4594,536.99668 C 2432.1573,668.47643 2462.3575,756.40738 2494.0601,800.78979 C 2525.7612,845.17259 2563.6366,867.36389 2607.6863,867.36376 C 2682.4351,867.36389 2724.8155,814.63869 2734.8276,709.18801 L 2734.8276,709.18801 z "
     id="text2175" />
</svg>
